<svg xmlns="http://www.w3.org/2000/svg" xmlns:xlink="http://www.w3.org/1999/xlink" width="928" height="277" contentScriptType="application/ecmascript" contentStyleType="text/css" style="width:928px;height:277px" preserveAspectRatio="none" version="1.1" viewBox="0 0 928 277" zoomAndPan="magnify"><defs><filter id="f1w1adm4d0ub0e" width="300%" height="300%" x="-1" y="-1"><feGaussianBlur result="blurOut" stdDeviation="2"/><feColorMatrix in="blurOut" result="blurOut2" type="matrix" values="0 0 0 0 0 0 0 0 0 0 0 0 0 0 0 0 0 0 .4 0"/><feOffset dx="4" dy="4" in="blurOut2" result="blurOut3"/><feBlend in="SourceGraphic" in2="blurOut3" mode="normal"/></filter></defs><g><rect style="stroke:#383838;stroke-width:1.5" width="340" height="62.594" x="557.5" y="8" fill="#F8F8F8" filter="url(#f1w1adm4d0ub0e)"/><rect style="stroke:#383838;stroke-width:1.5" width="15" height="10" x="877.5" y="13" fill="#F8F8F8"/><rect style="stroke:#383838;stroke-width:1.5" width="4" height="2" x="875.5" y="15" fill="#F8F8F8"/><rect style="stroke:#383838;stroke-width:1.5" width="4" height="2" x="875.5" y="19" fill="#F8F8F8"/><text x="572.5" y="40.995" fill="#000" font-family="sans-serif" font-size="14" lengthAdjust="spacingAndGlyphs" textLength="300">/?name=... Response with ESI placeholders</text><text x="572.5" y="57.292" fill="#000" font-family="sans-serif" font-size="14" font-weight="bold" lengthAdjust="spacingAndGlyphs" textLength="138">private, no-cache</text><rect style="stroke:#383838;stroke-width:1.5" width="350" height="62.594" x="552.5" y="106" fill="#F8F8F8" filter="url(#f1w1adm4d0ub0e)"/><rect style="stroke:#383838;stroke-width:1.5" width="15" height="10" x="882.5" y="111" fill="#F8F8F8"/><rect style="stroke:#383838;stroke-width:1.5" width="4" height="2" x="880.5" y="113" fill="#F8F8F8"/><rect style="stroke:#383838;stroke-width:1.5" width="4" height="2" x="880.5" y="117" fill="#F8F8F8"/><text x="567.5" y="138.995" fill="#000" font-family="sans-serif" font-size="14" lengthAdjust="spacingAndGlyphs" textLength="310">CacheDemoController::showTime() fragment</text><text x="567.5" y="155.292" fill="#000" font-family="sans-serif" font-size="14" font-weight="bold" lengthAdjust="spacingAndGlyphs" textLength="156">public, max-age=10</text><rect style="stroke:#383838;stroke-width:1.5" width="379" height="62.594" x="538" y="204" fill="#F8F8F8" filter="url(#f1w1adm4d0ub0e)"/><rect style="stroke:#383838;stroke-width:1.5" width="15" height="10" x="897" y="209" fill="#F8F8F8"/><rect style="stroke:#383838;stroke-width:1.5" width="4" height="2" x="895" y="211" fill="#F8F8F8"/><rect style="stroke:#383838;stroke-width:1.5" width="4" height="2" x="895" y="215" fill="#F8F8F8"/><text x="553" y="236.995" fill="#000" font-family="sans-serif" font-size="14" lengthAdjust="spacingAndGlyphs" textLength="339">CacheDemoController::showWeekday() fragment</text><text x="553" y="253.292" fill="#000" font-family="sans-serif" font-size="14" font-weight="bold" lengthAdjust="spacingAndGlyphs" textLength="156">public, max-age=60</text><polygon fill="#F8F8F8" points="364 124.5 374 114.5 477 114.5 477 150.797 467 160.797 364 160.797 364 124.5" filter="url(#f1w1adm4d0ub0e)" style="stroke:#000;stroke-width:1.5"/><line style="stroke:#000;stroke-width:1.5" x1="467" x2="476" y1="124.5" y2="115.5"/><line style="stroke:#000;stroke-width:1.5" x1="364" x2="467" y1="124.5" y2="124.5"/><line style="stroke:#000;stroke-width:1.5" x1="467" x2="467" y1="124.5" y2="160.797"/><text x="379" y="147.495" fill="#000" font-family="sans-serif" font-size="14" lengthAdjust="spacingAndGlyphs" textLength="73">HttpCache</text><rect style="stroke:#383838;stroke-width:1.5" width="248" height="62.594" x="6" y="106" fill="#F8F8F8" filter="url(#f1w1adm4d0ub0e)"/><rect style="stroke:#383838;stroke-width:1.5" width="15" height="10" x="234" y="111" fill="#F8F8F8"/><rect style="stroke:#383838;stroke-width:1.5" width="4" height="2" x="232" y="113" fill="#F8F8F8"/><rect style="stroke:#383838;stroke-width:1.5" width="4" height="2" x="232" y="117" fill="#F8F8F8"/><text x="21" y="138.995" fill="#000" font-family="sans-serif" font-size="14" lengthAdjust="spacingAndGlyphs" textLength="106">Final Response</text><text x="21" y="155.292" fill="#000" font-family="sans-serif" font-size="14" font-weight="bold" lengthAdjust="spacingAndGlyphs" textLength="208">best-possible combination</text><path id="HttpCache-D1" fill="none" d="M471.928,114.423 C492.208,105.636 515.968,95.954 538,88.5 C556.337,82.296 575.9,76.417 595.223,71.026" style="stroke:#383838;stroke-width:1"/><path id="HttpCache-D2" fill="none" d="M477.087,137.5 C498.822,137.5 525.043,137.5 552.205,137.5" style="stroke:#383838;stroke-width:1"/><path id="HttpCache-D3" fill="none" d="M471.928,160.577 C492.208,169.3643 515.968,179.0463 538,186.5 C556.337,192.7037 575.9,198.5833 595.223,203.9735" style="stroke:#383838;stroke-width:1"/><path id="R&lt;-HttpCache" fill="none" d="M259.562,137.5 C296.065,137.5 333.925,137.5 363.641,137.5" style="stroke:#383838;stroke-width:1"/><polygon fill="#383838" points="254.187 137.5 263.187 141.5 259.187 137.5 263.187 133.5 254.187 137.5" style="stroke:#383838;stroke-width:1"/><text x="285" y="133.567" fill="#000" font-family="sans-serif" font-size="13" lengthAdjust="spacingAndGlyphs" textLength="48">creates</text></g></svg>